<?xml version="1.0" standalone="no"?>
<!DOCTYPE svg PUBLIC "-//W3C//DTD SVG 20010904//EN"
 "http://www.w3.org/TR/2001/REC-SVG-20010904/DTD/svg10.dtd">
<svg version="1.0" xmlns="http://www.w3.org/2000/svg"
 width="239.000000pt" height="262.000000pt" viewBox="0 0 239.000000 262.000000"
 preserveAspectRatio="xMidYMid meet">

<g transform="translate(0.000000,262.000000) scale(0.100000,-0.100000)"
fill="#000000" stroke="none">
<path d="M300 2520 c-58 -4 -106 -8 -107 -9 -2 0 -3 -10 -3 -20 0 -13 5 -18
18 -14 10 2 53 -7 95 -21 46 -14 74 -19 68 -12 -6 7 -37 21 -68 31 -32 11 -62
22 -67 26 -4 4 37 7 93 7 62 -1 101 -5 101 -11 0 -6 3 -7 7 -4 3 4 12 2 20 -4
10 -9 13 -8 13 5 0 15 -41 39 -58 34 -4 -1 -54 -5 -112 -8z"/>
<path d="M537 2469 c7 -7 15 -10 18 -7 3 3 -2 9 -12 12 -14 6 -15 5 -6 -5z"/>
<path d="M595 2441 c6 -10 2 -12 -16 -6 -13 4 -22 6 -19 4 3 -2 14 -12 26 -22
20 -16 21 -16 19 3 -1 11 -5 23 -10 27 -4 5 -5 2 0 -6z"/>
<path d="M446 2419 c-11 -11 -15 -19 -9 -19 12 0 38 28 32 34 -2 2 -13 -5 -23
-15z"/>
<path d="M645 2410 c6 -10 4 -12 -8 -7 -10 3 -17 2 -17 -2 0 -5 6 -11 14 -14
17 -7 30 20 14 29 -7 5 -8 2 -3 -6z"/>
<path d="M515 2391 c-3 -5 -2 -12 3 -15 5 -3 9 1 9 9 0 17 -3 19 -12 6z"/>
<path d="M926 2360 c-96 -20 -146 -38 -146 -50 0 -12 30 -34 52 -37 11 -2 36
-15 56 -30 l37 -27 -24 26 -24 27 24 5 c200 46 365 44 527 -5 96 -30 245 -100
234 -111 -5 -5 -93 -12 -196 -15 -102 -3 -184 -9 -180 -12 3 -3 82 -4 175 -2
105 2 169 -1 169 -7 0 -13 -60 -22 -147 -22 -40 0 -73 -3 -73 -7 0 -5 45 -7
101 -5 92 3 103 1 124 -18 27 -25 59 -20 76 11 12 23 2 62 -13 53 -7 -4 -8 -2
-4 5 4 6 13 8 21 4 7 -5 94 -5 191 -1 176 6 261 -2 134 -13 l-65 -6 70 0 c39
-1 93 2 120 7 l50 7 -45 3 c-43 3 -43 3 20 12 36 4 71 9 78 10 6 1 12 6 12 11
0 5 -12 6 -27 2 -16 -3 -115 -11 -221 -16 l-193 -10 -81 52 c-98 62 -171 96
-303 139 -94 31 -109 33 -270 36 -139 3 -186 0 -259 -16z m470 -25 c113 -29
216 -71 319 -132 72 -43 77 -48 52 -51 -18 -2 -66 16 -140 52 -162 80 -262
107 -422 113 -107 5 -150 2 -243 -16 -88 -17 -117 -19 -128 -10 -8 6 -14 15
-14 19 0 9 188 48 255 53 93 7 230 -6 321 -28z"/>
<path d="M755 2329 c-4 -6 -5 -12 -2 -15 2 -3 7 2 10 11 7 17 1 20 -8 4z"/>
<path d="M595 2320 c3 -5 10 -10 16 -10 5 0 9 5 9 10 0 6 -7 10 -16 10 -8 0
-12 -4 -9 -10z"/>
<path d="M941 2202 c6 -10 28 -29 48 -42 34 -23 34 -25 13 -28 -13 -2 -30 2
-38 8 -8 8 -14 8 -14 2 0 -10 -57 -1 -79 12 -6 4 -11 2 -11 -3 0 -6 -1 -14 -2
-17 -4 -10 110 -19 200 -17 76 2 82 1 82 -17 0 -18 -7 -20 -77 -21 -43 -1 -89
-5 -103 -10 -26 -9 150 -2 183 7 9 3 17 1 17 -5 0 -18 28 -12 50 11 21 23 27
63 10 73 -6 4 -8 11 -5 16 13 21 -37 7 -57 -16 -36 -42 -90 -35 -166 20 -35
25 -57 37 -51 27z"/>
<path d="M434 2113 c-228 -193 -375 -517 -375 -823 0 -189 33 -326 121 -505
72 -146 164 -265 276 -353 43 -35 87 -70 97 -78 10 -8 15 -19 12 -25 -4 -5 -2
-15 3 -22 7 -8 8 -36 2 -82 -15 -110 -13 -119 18 -132 89 -38 150 -46 310 -40
221 8 274 27 258 93 -8 29 -10 28 121 43 131 15 226 42 340 96 116 55 181 98
285 189 153 134 275 343 326 559 74 317 -10 686 -214 943 l-55 69 38 7 c21 4
86 16 146 26 80 14 111 23 122 38 22 29 17 43 -5 16 -11 -13 -23 -21 -28 -18
-4 2 -66 -4 -138 -15 -71 -11 -162 -24 -203 -30 -59 -8 -78 -15 -93 -35 -11
-13 -25 -24 -31 -24 -8 0 -7 4 1 12 7 7 12 21 12 32 0 19 -2 18 -13 -4 -11
-22 -22 -26 -85 -33 -52 -7 -72 -13 -72 -23 0 -12 -4 -12 -20 -4 -15 8 -43 7
-106 -4 -48 -9 -89 -18 -92 -21 -8 -8 37 -5 88 5 25 4 46 7 48 5 2 -1 -22 -22
-53 -46 -30 -24 -51 -45 -45 -47 5 -2 38 19 72 47 64 52 98 64 98 34 0 -9 -10
-47 -22 -85 -19 -58 -25 -68 -45 -68 -13 0 -23 -4 -23 -8 0 -11 47 -74 62 -84
8 -5 3 -7 -12 -4 -14 3 -58 10 -98 17 -54 8 -71 14 -63 22 6 6 11 18 11 26 0
11 -5 8 -16 -8 -15 -20 -22 -23 -61 -17 -24 3 -77 19 -116 36 -39 16 -79 30
-88 30 -28 0 -49 11 -49 26 0 8 6 11 15 8 8 -4 15 -4 15 0 0 9 -61 38 -67 32
-3 -3 1 -8 10 -12 9 -3 13 -12 10 -20 -4 -11 -44 6 -170 72 -91 47 -167 83
-171 80 -7 -7 -17 -1 110 -66 93 -48 105 -57 91 -67 -9 -7 -12 -13 -7 -13 6 0
15 5 21 11 7 7 17 8 28 2 16 -9 16 -11 1 -16 -9 -4 -16 -11 -16 -17 0 -7 9 -5
21 4 20 14 26 13 68 -8 25 -13 62 -27 81 -31 19 -4 64 -18 100 -32 36 -14 80
-30 98 -35 27 -7 31 -12 22 -23 -21 -25 23 -38 86 -25 30 6 79 10 110 9 31 -2
58 2 62 8 6 8 209 43 253 43 16 0 9 19 -11 30 -10 6 -73 14 -140 18 -66 5
-122 11 -125 13 -2 3 9 45 25 94 l28 90 46 8 c28 4 54 3 66 -3 28 -15 60 -12
60 5 0 8 12 18 27 21 23 6 33 1 72 -42 113 -125 204 -304 242 -476 39 -177 35
-308 -13 -493 -99 -377 -420 -663 -815 -730 -40 -6 -43 -5 -43 17 0 22 37 239
46 266 2 9 20 4 64 -18 49 -25 71 -30 116 -28 43 2 58 7 66 21 13 25 2 102
-23 150 -23 46 -24 61 -3 92 15 23 14 26 -9 57 -13 18 -50 97 -82 175 -31 78
-65 149 -74 157 -9 8 -54 29 -101 46 -101 37 -112 46 -76 59 14 6 29 17 32 26
3 8 -4 61 -16 117 -12 57 -24 118 -27 136 -3 18 -9 35 -14 38 -5 3 -9 21 -9
40 0 22 -6 37 -15 40 -8 4 -15 15 -15 25 0 30 -43 40 -127 33 -50 -5 -84 -14
-105 -28 -35 -23 -94 -123 -104 -174 -9 -47 29 -132 85 -192 26 -28 46 -52 43
-54 -10 -10 51 -106 80 -126 l33 -22 -31 6 c-26 4 -33 1 -42 -20 -13 -28 -29
-31 -35 -6 -3 9 -5 2 -6 -17 l-1 -35 30 29 c62 59 125 36 156 -56 l14 -44 -6
40 c-10 56 -12 105 -4 100 3 -2 14 9 25 24 l18 28 24 -26 24 -26 -7 48 c-3 26
-2 47 2 47 5 0 41 -13 80 -28 72 -28 104 -47 104 -63 0 -4 26 -70 59 -146 83
-196 81 -176 14 -206 -77 -33 -103 -41 -103 -28 0 5 17 22 38 37 67 50 67 58
0 12 -32 -22 -36 -14 -10 16 16 20 16 20 0 7 -16 -12 -26 -3 -12 11 11 11 15
198 4 198 -6 0 -10 -31 -10 -80 0 -91 -16 -180 -33 -180 -25 0 -40 19 -47 56
-3 22 -10 38 -16 38 -63 -11 -177 -50 -181 -63 -4 -9 -10 -22 -16 -28 -16 -21
-69 61 -121 187 -26 63 -60 139 -74 169 l-26 53 20 17 c11 9 23 25 26 36 3 11
9 29 13 40 7 20 6 20 -9 1 -9 -11 -16 -28 -16 -37 0 -18 -75 -68 -162 -109
-41 -19 -51 -30 -78 -88 -36 -77 -100 -244 -100 -261 0 -7 -7 -26 -16 -43 -9
-17 -20 -62 -26 -100 -5 -38 -13 -79 -17 -91 -8 -21 -11 -19 -55 28 -102 110
-185 254 -234 405 -71 220 -61 471 28 682 65 157 207 345 319 422 34 24 43 26
63 16 41 -22 98 -83 98 -106 0 -13 4 -25 8 -28 21 -13 2 48 -24 76 -23 24 -25
29 -9 23 44 -17 59 -12 68 28 10 40 37 55 78 42 14 -5 19 -4 15 4 -4 6 -25 11
-46 11 -43 0 -60 -18 -60 -64 0 -14 -5 -26 -11 -26 -6 0 -56 23 -110 50 -54
28 -101 50 -103 50 -3 0 -35 -25 -72 -57z m109 24 c16 -11 13 -16 -33 -51
-169 -129 -309 -365 -362 -611 -20 -96 -15 -304 10 -408 47 -192 132 -352 254
-482 42 -45 80 -93 83 -108 7 -28 13 -31 53 -27 19 1 22 -3 22 -34 0 -20 -4
-36 -9 -36 -21 0 -164 124 -216 187 -170 205 -253 420 -262 678 -9 250 45 439
190 655 50 76 218 250 241 250 7 0 20 -6 29 -13z m1426 -146 c65 -77 148 -216
182 -304 56 -147 73 -244 73 -417 -1 -193 -26 -299 -108 -465 -66 -134 -126
-215 -238 -320 -174 -164 -401 -263 -650 -282 l-78 -6 0 25 c0 31 15 38 78 38
128 0 331 65 472 151 114 69 267 224 334 337 167 282 196 608 82 914 -41 108
-114 231 -183 308 -29 32 -53 61 -53 64 0 3 11 6 24 6 17 0 37 -15 65 -49z
m-224 -210 l90 -7 -137 -8 c-137 -8 -168 -6 -168 14 0 11 75 12 215 1z m-75
-34 c-10 -9 -100 -16 -100 -9 0 5 24 9 52 11 29 1 50 0 48 -2z m-270 -31 c0
-2 -9 -6 -20 -9 -11 -3 -18 -1 -14 4 5 9 34 13 34 5z m-294 -54 c6 -4 19 -22
28 -40 14 -28 15 -36 4 -50 -11 -13 -11 -15 5 -9 11 4 17 2 17 -8 0 -8 -9 -15
-20 -15 -11 0 -20 -6 -20 -13 0 -8 9 -22 20 -32 11 -10 20 -24 20 -30 0 -17
-38 -26 -44 -11 -2 6 -5 3 -5 -6 -1 -9 -14 -29 -30 -45 -24 -24 -33 -27 -57
-21 -46 13 -72 40 -82 85 -9 41 -9 43 24 68 19 15 43 44 54 65 11 21 30 46 42
54 25 18 29 19 44 8z m74 -151 c5 -11 10 -30 9 -43 0 -22 -1 -22 -9 -3 -4 12
-15 27 -24 34 -20 17 -21 31 -1 31 8 0 19 -9 25 -19z m-242 -107 c27 -18 29
-44 4 -44 -23 0 -56 35 -47 49 8 15 17 14 43 -5z m222 -14 c-20 -13 -43 -13
-35 0 3 6 16 10 28 10 18 0 19 -2 7 -10z m-33 -18 c17 -11 -1 -36 -21 -29 -9
4 -16 13 -16 22 0 16 17 20 37 7z m66 -3 c-8 -8 -16 -8 -30 0 -16 9 -14 10 12
11 21 0 26 -3 18 -11z m-190 -65 c28 -31 41 -37 85 -42 46 -4 51 -7 55 -31 3
-22 4 -20 6 9 l3 35 13 -30 c8 -16 14 -38 15 -49 0 -16 -2 -17 -17 -5 -11 10
-17 10 -20 3 -2 -6 -10 -20 -18 -30 -14 -17 -14 -17 -5 9 5 16 10 38 10 50 -1
12 -11 -9 -23 -46 l-23 -68 -19 22 c-11 11 -32 27 -47 35 -43 22 -78 82 -78
131 0 54 18 56 63 7z m-159 -196 c38 -78 118 -292 108 -296 -44 -15 -57 -31
-74 -87 -22 -72 -38 -85 -97 -84 -25 1 -36 4 -25 6 18 3 22 14 28 69 4 35 15
81 26 102 17 33 40 122 40 156 0 7 -7 21 -15 32 -13 17 -14 16 -5 -15 9 -33
-4 -125 -21 -145 -4 -4 -3 11 2 34 7 32 6 56 -6 97 -9 29 -20 51 -25 48 -6 -3
-7 1 -4 9 3 9 1 16 -5 16 -16 0 -14 -18 11 -77 l22 -53 -19 -97 c-10 -54 -19
-109 -19 -123 -1 -23 -4 -25 -41 -20 -22 3 -77 5 -123 5 -45 0 -82 2 -82 5 0
14 61 191 85 245 l26 60 -5 -45 c-6 -53 8 -34 18 25 4 22 14 62 22 88 14 42
22 51 72 77 32 16 62 28 67 27 6 -2 23 -28 39 -59z m421 -259 c11 -16 1 -19
-13 -3 -7 8 -8 14 -3 14 5 0 13 -5 16 -11z m-91 -23 c-51 -22 -74 -28 -74 -18
0 6 17 14 38 20 54 14 72 13 36 -2z m-164 -20 c0 -8 -17 -17 -42 -21 -25 -5
-35 -10 -25 -12 10 -3 31 0 47 5 30 11 40 7 40 -14 0 -8 -17 -14 -42 -17 l-43
-4 47 -1 c59 -2 75 -22 19 -22 -24 0 -41 -5 -41 -11 0 -7 12 -9 34 -5 30 6 34
4 38 -19 5 -25 -5 -34 -17 -15 -14 23 -45 9 -64 -27 -24 -47 -65 -93 -85 -93
-7 0 -55 -16 -105 -35 -71 -28 -104 -35 -159 -35 -38 0 -73 -5 -80 -12 -28
-28 -41 82 -19 157 14 46 39 55 131 47 73 -6 72 -22 -1 -22 -32 0 -65 -5 -73
-10 -11 -8 -9 -9 10 -5 14 3 81 2 150 -3 85 -5 127 -5 132 2 4 6 17 43 30 82
20 67 24 72 62 87 52 20 56 20 56 3z m289 -31 c29 -14 41 -33 41 -63 0 -9 9
-35 20 -57 15 -29 19 -33 15 -14 -4 25 -2 27 49 33 70 8 113 -14 122 -61 9
-47 0 -61 -46 -73 -41 -11 -73 -1 -145 43 -49 30 -48 29 -34 39 9 6 -7 7 -46
4 -58 -5 -59 -5 -30 9 17 8 40 14 53 15 12 0 22 5 22 11 0 13 -52 3 -92 -17
-34 -18 -45 -18 -45 1 0 24 56 69 100 81 l42 10 -31 17 c-30 16 -32 15 -54 -8
-32 -34 -37 -24 -9 14 26 35 30 36 68 16z m201 -25 c0 -8 9 -32 20 -53 22 -40
14 -49 -15 -17 -15 16 -26 18 -81 13 l-64 -6 0 27 c0 14 6 26 13 26 6 0 35 11
62 24 51 23 64 20 65 -14z m-395 -125 c20 -55 38 -101 39 -102 2 -2 36 8 76
22 40 14 74 25 76 25 1 0 -5 -33 -12 -72 -8 -40 -19 -102 -24 -137 -5 -35 -11
-65 -14 -68 -7 -7 -88 -24 -93 -19 -2 2 -9 50 -15 107 -7 62 -17 114 -27 128
-26 40 -60 125 -53 136 3 5 5 28 3 50 -2 22 -1 38 2 35 3 -3 21 -50 42 -105z
m-92 -73 l2 -36 -70 -12 c-38 -6 -99 -15 -135 -18 l-65 -7 30 18 c17 9 57 24
90 33 56 16 62 20 90 69 l30 53 13 -32 c7 -18 14 -48 15 -68z"/>
<path d="M1015 1534 c-24 -25 -13 -26 30 -4 36 18 37 20 13 20 -15 0 -34 -7
-43 -16z"/>
<path d="M1040 1504 c-14 -8 -19 -14 -10 -14 26 0 60 12 60 21 0 12 -20 10
-50 -7z"/>
<path d="M900 1404 c0 -10 28 -34 41 -34 8 0 5 7 -6 20 -17 19 -35 26 -35 14z"/>
<path d="M610 790 c8 -5 20 -10 25 -10 6 0 3 5 -5 10 -8 5 -19 10 -25 10 -5 0
-3 -5 5 -10z"/>
<path d="M681 766 c10 -9 69 -36 69 -32 0 6 -55 36 -66 36 -4 0 -5 -2 -3 -4z"/>
<path d="M1220 675 c-19 -14 -30 -25 -24 -25 5 0 18 7 28 15 11 8 31 15 45 15
14 0 33 5 41 10 11 7 6 10 -21 10 -22 0 -48 -9 -69 -25z"/>
<path d="M1813 2113 c9 -2 23 -2 30 0 6 3 -1 5 -18 5 -16 0 -22 -2 -12 -5z"/>
<path d="M1878 2113 c12 -2 32 -2 45 0 12 2 2 4 -23 4 -25 0 -35 -2 -22 -4z"/>
<path d="M900 2077 c50 -54 261 -161 314 -159 21 1 45 -3 53 -9 7 -7 16 -9 19
-6 11 11 -56 37 -80 31 -14 -3 -33 -1 -43 5 -17 10 -16 10 4 11 12 0 24 4 28
9 3 6 -6 6 -25 1 -25 -7 -45 -1 -132 41 -57 28 -119 65 -138 82 l-35 32 35
-38z"/>
<path d="M1368 2083 c6 -2 18 -2 25 0 6 3 1 5 -13 5 -14 0 -19 -2 -12 -5z"/>
<path d="M1297 2051 c-6 -24 -23 -25 -97 -7 l-25 7 25 -12 c24 -11 68 -24 117
-34 15 -4 26 1 33 15 13 24 3 26 -26 5 -24 -16 -40 -9 -23 11 6 7 9 19 7 26
-3 7 -7 2 -11 -11z"/>
<path d="M760 2036 c0 -7 192 -107 197 -103 3 4 -183 107 -193 107 -2 0 -4 -2
-4 -4z"/>
<path d="M1602 2033 c-18 -2 -30 -8 -27 -13 3 -4 21 -4 41 0 36 8 60 21 33 18
-8 0 -29 -3 -47 -5z"/>
<path d="M1433 2015 c18 -13 17 -14 -10 -18 -15 -2 -4 -2 26 0 30 3 64 9 75
14 14 6 6 7 -25 3 -29 -4 -49 -2 -53 5 -4 6 -13 11 -19 11 -7 0 -4 -7 6 -15z"/>
<path d="M1160 2000 c0 -5 5 -10 11 -10 5 0 7 5 4 10 -3 6 -8 10 -11 10 -2 0
-4 -4 -4 -10z"/>
<path d="M1250 1970 c-11 -8 -7 -9 15 -4 37 8 45 14 19 14 -10 0 -26 -5 -34
-10z"/>
<path d="M691 1943 c0 -12 -9 -24 -18 -26 -10 -3 -3 -5 15 -6 29 -1 32 2 31
27 0 23 -1 24 -8 7 l-8 -20 -5 20 c-5 19 -6 19 -7 -2z"/>
<path d="M1300 1950 c-23 -7 -22 -8 11 -9 19 -1 40 -6 47 -13 7 -7 12 -8 12
-4 0 9 -31 36 -40 35 -3 -1 -16 -5 -30 -9z"/>
<path d="M556 1934 c-18 -18 -21 -69 -5 -79 19 -12 49 26 49 62 0 37 -18 44
-44 17z"/>
<path d="M970 1926 c0 -3 14 -12 30 -21 17 -9 30 -13 30 -11 0 3 -13 12 -30
21 -16 9 -30 13 -30 11z"/>
<path d="M675 1858 c-6 -13 -16 -22 -23 -20 -7 1 -12 -2 -12 -8 0 -5 9 -10 20
-10 25 0 26 -17 3 -23 -14 -4 -13 -5 4 -6 12 0 26 5 30 12 16 25 49 35 90 28
22 -4 45 -11 51 -15 6 -3 14 -1 18 6 4 7 4 10 -1 6 -4 -4 -13 -3 -20 2 -15 13
-127 22 -120 9 4 -5 -3 -9 -15 -9 -17 0 -19 4 -14 25 8 31 2 32 -11 3z"/>
<path d="M1250 1860 c0 -5 -19 -15 -42 -21 -24 -6 -38 -14 -31 -16 16 -6 83
24 83 36 0 6 -2 11 -5 11 -3 0 -5 -4 -5 -10z"/>
<path d="M1127 1839 c7 -7 15 -10 18 -7 3 3 -2 9 -12 12 -14 6 -15 5 -6 -5z"/>
<path d="M598 1833 c6 -2 18 -2 25 0 6 3 1 5 -13 5 -14 0 -19 -2 -12 -5z"/>
<path d="M1444 1815 c11 -8 22 -12 25 -9 6 6 -19 24 -34 24 -5 -1 -1 -7 9 -15z"/>
<path d="M586 1795 c-23 -23 -20 -62 5 -75 11 -7 23 -9 27 -6 3 3 0 6 -8 6 -9
0 -9 4 -2 13 15 18 19 69 6 74 -7 2 -19 -3 -28 -12z"/>
<path d="M860 1800 c-8 -5 -12 -11 -10 -14 3 -2 14 2 24 10 22 15 10 19 -14 4z"/>
<path d="M800 1772 c0 -18 17 -23 42 -13 16 7 18 10 6 10 -9 1 -23 4 -32 7 -9
3 -16 1 -16 -4z"/>
<path d="M725 1741 c11 -5 23 -7 28 -4 4 2 7 -1 7 -8 0 -8 5 -7 17 2 14 12 16
12 11 -1 -2 -8 -13 -16 -24 -17 -10 -1 -31 -4 -46 -7 -23 -5 -26 -3 -21 16 4
20 3 21 -7 6 -6 -10 -21 -18 -33 -19 -12 0 -16 -3 -9 -6 6 -2 12 -12 12 -21 0
-12 3 -13 12 -4 17 17 49 15 42 -2 -3 -8 -13 -13 -22 -10 -9 3 -7 -1 6 -7 21
-11 27 -8 67 31 50 49 46 60 -20 59 -30 0 -35 -2 -20 -8z m35 -44 c0 -2 -10
-12 -22 -23 l-23 -19 19 23 c18 21 26 27 26 19z"/>
<path d="M890 1209 c0 -4 7 -22 15 -40 8 -19 14 -27 14 -19 0 14 -28 72 -29
59z"/>
<path d="M1301 1164 c0 -11 3 -14 6 -6 3 7 2 16 -1 19 -3 4 -6 -2 -5 -13z"/>
<path d="M1316 1121 c10 -37 33 -88 33 -71 0 8 -9 33 -20 55 -10 22 -16 29
-13 16z"/>
<path d="M1392 939 c-6 -34 -10 -65 -8 -67 7 -6 29 104 24 118 -2 7 -9 -16
-16 -51z"/>
<path d="M1111 914 c0 -11 3 -14 6 -6 3 7 2 16 -1 19 -3 4 -6 -2 -5 -13z"/>
<path d="M1416 893 c-6 -14 -5 -15 5 -6 7 7 10 15 7 18 -3 3 -9 -2 -12 -12z"/>
</g>
</svg>
